<svg xmlns="http://www.w3.org/2000/svg"  viewBox="0 0 512 512" width="24px" height="24px"><path d="M439.1763,205.3955c-20.8888-18.1631-54.932-7.7346-98.48,30.1315-24.9,6.81-86.7547,16.0115-146.6488-35.57-33.5831-28.9184-70.6-32.6294-99.0181-9.9223-14.6533,11.7075-24.9946,29.12-29.1177,49.03A91.5331,91.5331,0,0,0,74.66,300.4482c12.6411,23.795,38.57,36.2051,75.3339,36.2051q5.1651,0,10.6143-.3281c34.0117-2.0469,75.4194-14.29,110.7637-32.749,20.6347-10.7725,37.5219-22.7217,48.8344-34.5537,8.919-9.32,17.7334-17.8033,26.1988-25.2144,22.6489-19.83,63.9668-50.2075,86.2094-30.8667,6.8516,5.958,8.3648,23.5444-2.3261,44.4014-16.5274,32.2412-57.62,61.165-123.3921,45.6543a5,5,0,1,0-2.2959,9.7324,163.7079,163.7079,0,0,0,37.5889,4.6143c49.812-.001,82.1884-26.55,96.998-55.44C450.9819,238.8945,450.9775,215.6572,439.1763,205.3955ZM312.98,262.11c-10.5689,11.0546-26.5571,22.3281-46.2359,32.6l0,.001c-33.6841,17.5918-78.9986,31.9258-116.9932,31.9238-29.3975,0-54.4146-8.583-66.2593-30.8789-19.5405-36.7822-6.3047-78.667,17.7808-97.91a54.6238,54.6238,0,0,1,34.6308-12.397c16.7408,0,34.6084,7.436,51.62,22.0845,28.0527,24.16,59.7216,38.3594,94.1264,42.2036a169.7654,169.7654,0,0,0,44.6016-.9634Q319.6778,255.1128,312.98,262.11Z"/></svg>